<svg xmlns:xlink="http://www.w3.org/1999/xlink" xmlns="http://www.w3.org/2000/svg" width="841px" height="330px" viewBox="0 0 841 330" style="overflow: hidden; display: block; width: 841px; height: 330px;"><defs/><g style="pointer-events:visiblePainted" transform="translate(20.379102818988315 0)" image-rendering="auto" shape-rendering="auto"><g><path fill="none" stroke="rgb(169,169,169)" d="M 168.33333333333334,60 L 168.33333333333334,70 L 35,70 L 35,90" stroke-opacity="1" stroke-width="1" stroke-linecap="butt" stroke-linejoin="miter" stroke-miterlimit="10"/></g><g><path fill="none" stroke="rgb(169,169,169)" d="M 168.33333333333334,240 L 168.33333333333334,250 L 35,250 L 35,270" stroke-opacity="1" stroke-width="1" stroke-linecap="butt" stroke-linejoin="miter" stroke-miterlimit="10"/></g><g><path fill="none" stroke="rgb(169,169,169)" d="M 185,240 L 185,270" stroke-opacity="1" stroke-width="1" stroke-linecap="butt" stroke-linejoin="miter" stroke-miterlimit="10"/></g><g><path fill="none" stroke="rgb(169,169,169)" d="M 201.66666666666666,240 L 201.66666666666666,250 L 335,250 L 335,270" stroke-opacity="1" stroke-width="1" stroke-linecap="butt" stroke-linejoin="miter" stroke-miterlimit="10"/></g><g><path fill="none" stroke="rgb(169,169,169)" d="M 185,150 L 185,180" stroke-opacity="1" stroke-width="1" stroke-linecap="butt" stroke-linejoin="miter" stroke-miterlimit="10"/></g><g><path fill="none" stroke="rgb(169,169,169)" d="M 185,60 L 185,90" stroke-opacity="1" stroke-width="1" stroke-linecap="butt" stroke-linejoin="miter" stroke-miterlimit="10"/></g><g><path fill="none" stroke="rgb(169,169,169)" d="M 610,240 L 610,250 L 485,250 L 485,270" stroke-opacity="1" stroke-width="1" stroke-linecap="butt" stroke-linejoin="miter" stroke-miterlimit="10"/></g><g><path fill="none" stroke="rgb(169,169,169)" d="M 635,240 L 635,270" stroke-opacity="1" stroke-width="1" stroke-linecap="butt" stroke-linejoin="miter" stroke-miterlimit="10"/></g><g><path fill="none" stroke="rgb(169,169,169)" d="M 622.5,150 L 622.5,180" stroke-opacity="1" stroke-width="1" stroke-linecap="butt" stroke-linejoin="miter" stroke-miterlimit="10"/></g><g><path fill="none" stroke="rgb(169,169,169)" d="M 785,240 L 785,270" stroke-opacity="1" stroke-width="1" stroke-linecap="butt" stroke-linejoin="miter" stroke-miterlimit="10"/></g><g><path fill="none" stroke="rgb(169,169,169)" d="M 647.5,150 L 647.5,160 L 785,160 L 785,180" stroke-opacity="1" stroke-width="1" stroke-linecap="butt" stroke-linejoin="miter" stroke-miterlimit="10"/></g><g><path fill="none" stroke="rgb(169,169,169)" d="M 201.66666666666666,60 L 201.66666666666666,70 L 635,70 L 635,90" stroke-opacity="1" stroke-width="1" stroke-linecap="butt" stroke-linejoin="miter" stroke-miterlimit="10"/></g><g transform="translate(160 0)"><g transform="scale(2.78)">
            <svg svgBox="0 0 18 18" data-islogo="true" fill="msportalfx-svg-placeholder" role="presentation" focusable="false"><g><title/><defs><linearGradient id="ygc8_0" x1="9.88" y1="8.59" x2="11.52" y2="10.23" gradientTransform="rotate(-.08 -285.464 -1454.08)" gradientUnits="userSpaceOnUse"><stop offset="0" stop-color="#86d633"/><stop offset=".24" stop-color="#83d232"/><stop offset=".5" stop-color="#7cc52f"/><stop offset=".76" stop-color="#6fb02a"/><stop offset="1" stop-color="#5e9624"/></linearGradient><linearGradient id="ygc8_1" x1="6.18" y1="8.59" x2="7.81" y2="10.23"/><linearGradient id="ygc8_2" x1="2.48" y1="8.59" x2="4.11" y2="10.23"/></defs><title>Icon-networking-61</title><circle cx="12.74" cy="8.99" r="1.16" fill="url(#ygc8_0)"/><circle cx="9.04" cy="9" r="1.16" fill="url(#ygc8_1)"/><circle cx="5.34" cy="9" r="1.16" fill="url(#ygc8_2)"/><path d="M6.182 13.638l-.664.665a.3.3 0 0 1-.424 0L.18 9.404a.6.6 0 0 1-.001-.848l.663-.666 5.34 5.324a.3.3 0 0 1 0 .425z" fill="#50e6ff"/><path d="M5.418 3.708l.666.664a.3.3 0 0 1 0 .424L.838 10.057l-.666-.663a.6.6 0 0 1-.001-.849L4.994 3.71a.3.3 0 0 1 .424 0z" fill="#1490df"/><path d="M17.157 7.88l.663.666a.6.6 0 0 1 0 .848l-4.915 4.9a.3.3 0 0 1-.424 0l-.664-.666a.3.3 0 0 1 0-.424l5.34-5.324z" fill="#50e6ff"/><path d="M17.818 9.387l-.665.664-5.247-5.261a.3.3 0 0 1 0-.425l.674-.67a.3.3 0 0 1 .424 0l4.823 4.836a.6.6 0 0 1-.002.849z" fill="#1490df"/></g></svg>
        </g></g><g transform="translate(10 90)"><g transform="scale(1.0)">
            <svg svgBox="0 0 50 50" fill="msportalfx-svg-placeholder" role="presentation" focusable="false"><g><title/><path d="M49.7 25.7c.5-.5.4-1.3 0-1.8l-2.4-2.4L36.5 11c-.5-.5-1.2-.5-1.7 0s-.6 1.3 0 1.8l11.3 11.1c.5.5.5 1.3 0 1.8L34.6 37.2c-.5.5-.5 1.3 0 1.8s1.3.4 1.7 0L47 28.4l.1-.1 2.6-2.6zm-49.4 0c-.5-.5-.4-1.3 0-1.8l2.4-2.4L13.5 11c.5-.5 1.2-.5 1.7 0s.6 1.3 0 1.8L4.1 23.9c-.5.5-.5 1.3 0 1.8l11.3 11.5c.5.5.5 1.3 0 1.8s-1.3.4-1.7 0L2.8 28.5l-.1-.1-2.4-2.7z" fill="#3999C6"/><path d="M28.4 24.8c0 1.9-1.6 3.3-3.3 3.3-1.7 0-3.5-1.6-3.5-3.3s1.4-3.3 3.5-3.3c2 0 3.3 1.6 3.3 3.3z" fill="#7fba00"/></g></svg>
        </g></g><g transform="translate(160 90)"><g transform="scale(1.0)">
            <svg svgBox="0 0 50 50" fill="msportalfx-svg-placeholder" role="presentation" focusable="false"><g><title/><path d="M49.7 25.7c.5-.5.4-1.3 0-1.8l-2.4-2.4L36.5 11c-.5-.5-1.2-.5-1.7 0s-.6 1.3 0 1.8l11.3 11.1c.5.5.5 1.3 0 1.8L34.6 37.2c-.5.5-.5 1.3 0 1.8s1.3.4 1.7 0L47 28.4l.1-.1 2.6-2.6zm-49.4 0c-.5-.5-.4-1.3 0-1.8l2.4-2.4L13.5 11c.5-.5 1.2-.5 1.7 0s.6 1.3 0 1.8L4.1 23.9c-.5.5-.5 1.3 0 1.8l11.3 11.5c.5.5.5 1.3 0 1.8s-1.3.4-1.7 0L2.8 28.5l-.1-.1-2.4-2.7z" fill="#3999C6"/><path d="M28.4 24.8c0 1.9-1.6 3.3-3.3 3.3-1.7 0-3.5-1.6-3.5-3.3s1.4-3.3 3.5-3.3c2 0 3.3 1.6 3.3 3.3z" fill="#7fba00"/></g></svg>
        </g></g><g transform="translate(160 180)"><g transform="scale(2.78)">
            <svg svgBox="0 0 18 18" data-islogo="true" fill="msportalfx-svg-placeholder" role="presentation" focusable="false"><g><title/><defs><linearGradient id="ygc8_3" x1="9.01" y1="16.5" x2="9.01" y2="1.5" gradientUnits="userSpaceOnUse"><stop offset="0" stop-color="#5e9641"/><stop offset=".34" stop-color="#6baa42"/><stop offset=".67" stop-color="#73b743"/><stop offset="1" stop-color="#76bb43"/></linearGradient></defs><title>Icon-networking-80</title><path d="M15.89 2.91h1.27a.34.34 0 0 1 .34.34v3.5a.34.34 0 0 1-.34.34h-1.27V2.91zm0 6.09h1.27a.34.34 0 0 1 .34.34v5.86a.34.34 0 0 1-.34.34h-1.27V9z" fill="#ffca00"/><rect x="2.13" y="1.5" width="13.76" height="15" rx=".69" fill="url(#ygc8_3)"/><path d="M5.9 12.9h-.71a.2.2 0 0 1-.19-.21V4.34a.19.19 0 0 1 .19-.2h1.93a.19.19 0 0 1 .19.2.2.2 0 0 1-.19.21H5.38v7.93h.52a.2.2 0 0 1 .19.21.21.21 0 0 1-.19.21z" fill="#b4ec36"/><path d="M6 13.92H4.4a.2.2 0 0 1-.19-.21L4.08 3.38a.2.2 0 0 1 .06-.15.16.16 0 0 1 .13-.06h2.85v.41H4.47l.12 9.92H6zm6-.92h-1.59a.19.19 0 0 1-.14-.07.18.18 0 0 1-.06-.14V7.9a.19.19 0 0 1 .19-.2h.91V5.45h.38v2.44a.2.2 0 0 1-.18.21h-.91v4.42H12z" fill="#b4ec36"/><rect x="7.07" y="2.29" width="6.14" height="3.11" rx=".26" fill="#365615"/><rect x="5.86" y="12.69" width="4.9" height="1.09" rx=".26" transform="rotate(90 8.305 13.235)" fill="#365615"/><rect x="3.99" y="12.71" width="4.9" height="1.09" rx=".26" transform="rotate(90 6.44 13.26)" fill="#365615"/><rect x="9.98" y="12.71" width="4.9" height="1.09" rx=".26" transform="rotate(90 12.425 13.255)" fill="#f2f2f2"/><ellipse cx="8.11" cy="8.06" rx="1.04" ry="1.12" fill="#f2f2f2"/><path d="M2.11 12.25H.84a.34.34 0 0 1-.34-.3V6.09a.34.34 0 0 1 .34-.34h1.27v6.5z" fill="#3b3b3b"/></g></svg>
        </g></g><g transform="translate(10 270)"><g transform="scale(2.78)">
            <svg svgBox="0 0 18 18" data-islogo="true" fill="msportalfx-svg-placeholder" role="presentation" focusable="false"><g><title/><defs><linearGradient id="ygc8_4" x1="8.88" y1="12.21" x2="8.88" y2=".21" gradientUnits="userSpaceOnUse"><stop offset="0" stop-color="#0078d4"/><stop offset=".82" stop-color="#5ea0ef"/></linearGradient><linearGradient id="ygc8_5" x1="8.88" y1="16.84" x2="8.88" y2="12.21" gradientUnits="userSpaceOnUse"><stop offset=".15" stop-color="#ccc"/><stop offset="1" stop-color="#707070"/></linearGradient></defs><title>Icon-compute-21</title><rect x="-.12" y=".21" width="18" height="12" rx=".6" fill="url(#ygc8_4)"/><path fill="#50e6ff" d="M11.88 4.46v3.49l-3 1.76v-3.5l3-1.75z"/><path fill="#c3f1ff" d="M11.88 4.46l-3 1.76-3-1.76 3-1.75 3 1.75z"/><path fill="#9cebff" d="M8.88 6.22v3.49l-3-1.76V4.46l3 1.76z"/><path fill="#c3f1ff" d="M5.88 7.95l3-1.74v3.5l-3-1.76z"/><path fill="#9cebff" d="M11.88 7.95l-3-1.74v3.5l3-1.76z"/><path d="M12.49 15.84c-1.78-.28-1.85-1.56-1.85-3.63H7.11c0 2.07-.06 3.35-1.84 3.63a1 1 0 0 0-.89 1h9a1 1 0 0 0-.89-1z" fill="url(#ygc8_5)"/></g></svg>
        </g></g><g transform="translate(160 270)"><g transform="scale(2.78)">
            <svg svgBox="0 0 18 18" data-islogo="true" fill="msportalfx-svg-placeholder" role="presentation" focusable="false"><g><title/><defs><linearGradient id="ygc8_6" x1="9.01" y1=".75" x2="9.01" y2="17.25" gradientUnits="userSpaceOnUse"><stop offset="0" stop-color="#5ea0ef"/><stop offset=".18" stop-color="#559cec"/><stop offset=".47" stop-color="#3c91e5"/><stop offset=".84" stop-color="#1380da"/><stop offset="1" stop-color="#0078d4"/></linearGradient></defs><title>Icon-networking-67</title><path d="M16.36 8.4c0 4.84-5.85 8.74-7.12 9.53a.46.46 0 0 1-.48 0c-1.27-.79-7.12-4.69-7.12-9.53V2.58a.46.46 0 0 1 .45-.46C6.64 2 5.59 0 9 0s2.36 2 6.91 2.12a.46.46 0 0 1 .45.46z" fill="#0078d4"/><path d="M15.75 8.45c0 4.44-5.36 8-6.53 8.74a.43.43 0 0 1-.44 0c-1.17-.72-6.53-4.3-6.53-8.74V3.11a.42.42 0 0 1 .41-.42C6.83 2.58 5.87.75 9 .75s2.17 1.83 6.34 1.94a.42.42 0 0 1 .41.42z" fill="#6bb9f2"/><path d="M9 9V.75c3.13 0 2.17 1.83 6.34 1.94a.43.43 0 0 1 .41.43v5.34a4.89 4.89 0 0 1 0 .54zm0 0H2.28c.4 4.18 5.38 7.5 6.5 8.19a.39.39 0 0 0 .18.06H9z" fill="url(#ygc8_6)"/><path d="M2.66 2.69C6.83 2.58 5.87.75 9 .75V9H2.28a4.89 4.89 0 0 1 0-.54V3.12a.43.43 0 0 1 .38-.43zM15.72 9H9v8.25a.39.39 0 0 0 .18-.06c1.16-.69 6.14-4.01 6.54-8.19z" fill="#50e6ff"/></g></svg>
        </g></g><g transform="translate(310 270)"><g transform="scale(2.78)">
            <svg svgBox="0 0 18 18" data-islogo="true" fill="msportalfx-svg-placeholder" role="presentation" focusable="false"><g><title/><defs><linearGradient id="ygc8_7" x1="9" y1="15.83" x2="9" y2="5.79" gradientUnits="userSpaceOnUse"><stop offset="0" stop-color="#32bedd"/><stop offset=".18" stop-color="#32caea"/><stop offset=".41" stop-color="#32d2f2"/><stop offset=".78" stop-color="#32d4f5"/></linearGradient></defs><title>Icon-networking-69</title><path d="M.5 5.79h17v9.48a.57.57 0 0 1-.57.57H1.07a.57.57 0 0 1-.57-.57V5.79z" fill="url(#ygc8_7)"/><path d="M1.07 2.17h15.86a.57.57 0 0 1 .57.57v3.05H.5V2.73a.57.57 0 0 1 .57-.56z" fill="#767676"/><circle cx="12.82" cy="10.19" r="1.38" fill="#f2f2f2"/><circle cx="9.06" cy="10.19" r="1.38" fill="#f2f2f2"/><circle cx="5.18" cy="10.19" r="1.38" fill="#f2f2f2"/><rect x="2.79" y="3.25" width="12.43" height="1.46" rx=".28" fill="#f2f2f2"/></g></svg>
        </g></g><g transform="translate(610 90)"><g transform="scale(1.0)">
            <svg svgBox="0 0 50 50" fill="msportalfx-svg-placeholder" role="presentation" focusable="false"><g><title/><path d="M49.7 25.7c.5-.5.4-1.3 0-1.8l-2.4-2.4L36.5 11c-.5-.5-1.2-.5-1.7 0s-.6 1.3 0 1.8l11.3 11.1c.5.5.5 1.3 0 1.8L34.6 37.2c-.5.5-.5 1.3 0 1.8s1.3.4 1.7 0L47 28.4l.1-.1 2.6-2.6zm-49.4 0c-.5-.5-.4-1.3 0-1.8l2.4-2.4L13.5 11c.5-.5 1.2-.5 1.7 0s.6 1.3 0 1.8L4.1 23.9c-.5.5-.5 1.3 0 1.8l11.3 11.5c.5.5.5 1.3 0 1.8s-1.3.4-1.7 0L2.8 28.5l-.1-.1-2.4-2.7z" fill="#3999C6"/><path d="M28.4 24.8c0 1.9-1.6 3.3-3.3 3.3-1.7 0-3.5-1.6-3.5-3.3s1.4-3.3 3.5-3.3c2 0 3.3 1.6 3.3 3.3z" fill="#7fba00"/></g></svg>
        </g></g><g transform="translate(597.5 180)"><g transform="scale(2.78)">
            <svg svgBox="0 0 18 18" data-islogo="true" fill="msportalfx-svg-placeholder" role="presentation" focusable="false"><g><title/><defs><linearGradient id="ygc8_8" x1="9.01" y1="16.5" x2="9.01" y2="1.5" gradientUnits="userSpaceOnUse"><stop offset="0" stop-color="#5e9641"/><stop offset=".34" stop-color="#6baa42"/><stop offset=".67" stop-color="#73b743"/><stop offset="1" stop-color="#76bb43"/></linearGradient></defs><title>Icon-networking-80</title><path d="M15.89 2.91h1.27a.34.34 0 0 1 .34.34v3.5a.34.34 0 0 1-.34.34h-1.27V2.91zm0 6.09h1.27a.34.34 0 0 1 .34.34v5.86a.34.34 0 0 1-.34.34h-1.27V9z" fill="#ffca00"/><rect x="2.13" y="1.5" width="13.76" height="15" rx=".69" fill="url(#ygc8_8)"/><path d="M5.9 12.9h-.71a.2.2 0 0 1-.19-.21V4.34a.19.19 0 0 1 .19-.2h1.93a.19.19 0 0 1 .19.2.2.2 0 0 1-.19.21H5.38v7.93h.52a.2.2 0 0 1 .19.21.21.21 0 0 1-.19.21z" fill="#b4ec36"/><path d="M6 13.92H4.4a.2.2 0 0 1-.19-.21L4.08 3.38a.2.2 0 0 1 .06-.15.16.16 0 0 1 .13-.06h2.85v.41H4.47l.12 9.92H6zm6-.92h-1.59a.19.19 0 0 1-.14-.07.18.18 0 0 1-.06-.14V7.9a.19.19 0 0 1 .19-.2h.91V5.45h.38v2.44a.2.2 0 0 1-.18.21h-.91v4.42H12z" fill="#b4ec36"/><rect x="7.07" y="2.29" width="6.14" height="3.11" rx=".26" fill="#365615"/><rect x="5.86" y="12.69" width="4.9" height="1.09" rx=".26" transform="rotate(90 8.305 13.235)" fill="#365615"/><rect x="3.99" y="12.71" width="4.9" height="1.09" rx=".26" transform="rotate(90 6.44 13.26)" fill="#365615"/><rect x="9.98" y="12.71" width="4.9" height="1.09" rx=".26" transform="rotate(90 12.425 13.255)" fill="#f2f2f2"/><ellipse cx="8.11" cy="8.06" rx="1.04" ry="1.12" fill="#f2f2f2"/><path d="M2.11 12.25H.84a.34.34 0 0 1-.34-.3V6.09a.34.34 0 0 1 .34-.34h1.27v6.5z" fill="#3b3b3b"/></g></svg>
        </g></g><g transform="translate(460 270)"><g transform="scale(2.78)">
            <svg svgBox="0 0 18 18" data-islogo="true" fill="msportalfx-svg-placeholder" role="presentation" focusable="false"><g><title/><defs><linearGradient id="ygc8_9" x1="8.88" y1="12.21" x2="8.88" y2=".21" gradientUnits="userSpaceOnUse"><stop offset="0" stop-color="#0078d4"/><stop offset=".82" stop-color="#5ea0ef"/></linearGradient><linearGradient id="ygc8_10" x1="8.88" y1="16.84" x2="8.88" y2="12.21" gradientUnits="userSpaceOnUse"><stop offset=".15" stop-color="#ccc"/><stop offset="1" stop-color="#707070"/></linearGradient></defs><title>Icon-compute-21</title><rect x="-.12" y=".21" width="18" height="12" rx=".6" fill="url(#ygc8_9)"/><path fill="#50e6ff" d="M11.88 4.46v3.49l-3 1.76v-3.5l3-1.75z"/><path fill="#c3f1ff" d="M11.88 4.46l-3 1.76-3-1.76 3-1.75 3 1.75z"/><path fill="#9cebff" d="M8.88 6.22v3.49l-3-1.76V4.46l3 1.76z"/><path fill="#c3f1ff" d="M5.88 7.95l3-1.74v3.5l-3-1.76z"/><path fill="#9cebff" d="M11.88 7.95l-3-1.74v3.5l3-1.76z"/><path d="M12.49 15.84c-1.78-.28-1.85-1.56-1.85-3.63H7.11c0 2.07-.06 3.35-1.84 3.63a1 1 0 0 0-.89 1h9a1 1 0 0 0-.89-1z" fill="url(#ygc8_10)"/></g></svg>
        </g></g><g transform="translate(610 270)"><g transform="scale(2.78)">
            <svg svgBox="0 0 18 18" data-islogo="true" fill="msportalfx-svg-placeholder" role="presentation" focusable="false"><g><title/><defs><linearGradient id="ygc8_11" x1="9.01" y1=".75" x2="9.01" y2="17.25" gradientUnits="userSpaceOnUse"><stop offset="0" stop-color="#5ea0ef"/><stop offset=".18" stop-color="#559cec"/><stop offset=".47" stop-color="#3c91e5"/><stop offset=".84" stop-color="#1380da"/><stop offset="1" stop-color="#0078d4"/></linearGradient></defs><title>Icon-networking-67</title><path d="M16.36 8.4c0 4.84-5.85 8.74-7.12 9.53a.46.46 0 0 1-.48 0c-1.27-.79-7.12-4.69-7.12-9.53V2.58a.46.46 0 0 1 .45-.46C6.64 2 5.59 0 9 0s2.36 2 6.91 2.12a.46.46 0 0 1 .45.46z" fill="#0078d4"/><path d="M15.75 8.45c0 4.44-5.36 8-6.53 8.74a.43.43 0 0 1-.44 0c-1.17-.72-6.53-4.3-6.53-8.74V3.11a.42.42 0 0 1 .41-.42C6.83 2.58 5.87.75 9 .75s2.17 1.83 6.34 1.94a.42.42 0 0 1 .41.42z" fill="#6bb9f2"/><path d="M9 9V.75c3.13 0 2.17 1.83 6.34 1.94a.43.43 0 0 1 .41.43v5.34a4.89 4.89 0 0 1 0 .54zm0 0H2.28c.4 4.18 5.38 7.5 6.5 8.19a.39.39 0 0 0 .18.06H9z" fill="url(#ygc8_11)"/><path d="M2.66 2.69C6.83 2.58 5.87.75 9 .75V9H2.28a4.89 4.89 0 0 1 0-.54V3.12a.43.43 0 0 1 .38-.43zM15.72 9H9v8.25a.39.39 0 0 0 .18-.06c1.16-.69 6.14-4.01 6.54-8.19z" fill="#50e6ff"/></g></svg>
        </g></g><g transform="translate(760 180)"><g transform="scale(2.78)">
            <svg svgBox="0 0 18 18" data-islogo="true" fill="msportalfx-svg-placeholder" role="presentation" focusable="false"><g><title/><defs><linearGradient id="ygc8_12" x1="10.56" y1="7.77" x2="10.56" y2="19.24" gradientUnits="userSpaceOnUse"><stop offset=".22" stop-color="#32d4f5"/><stop offset=".47" stop-color="#31d1f3"/><stop offset=".63" stop-color="#2ec9eb"/><stop offset=".77" stop-color="#29bade"/><stop offset=".89" stop-color="#22a5cb"/><stop offset="1" stop-color="#198ab3"/><stop offset="1" stop-color="#198ab3"/></linearGradient><linearGradient id="ygc8_13" x1="10.23" y1="1.63" x2="11.07" y2="12.04"><stop offset=".22" stop-color="#32d4f5"/><stop offset=".47" stop-color="#31d1f3"/><stop offset=".63" stop-color="#2ec9eb"/><stop offset=".77" stop-color="#29bade"/><stop offset=".89" stop-color="#22a5cb"/><stop offset="1" stop-color="#198ab3"/><stop offset="1" stop-color="#198ab3"/></linearGradient></defs><title>Icon-networking-82</title><path d="M16.23 17.17A1.21 1.21 0 0 0 17.46 16v-.2c-.49-3.86-2.69-7-6.89-7s-6.48 2.66-6.91 7a1.24 1.24 0 0 0 1.1 1.36h11.47z" fill="url(#ygc8_12)"/><path d="M10.57 9.71a3.86 3.86 0 0 1-2.1-.61l2.08 5.42 2.06-5.39a3.83 3.83 0 0 1-2.04.58z" opacity=".8" fill="#fff"/><circle cx="10.57" cy="5.84" r="3.87" fill="url(#ygc8_13)"/><path d="M6 5.88V1a.16.16 0 0 0-.16-.17H4.57a.17.17 0 0 0-.18.17v4.71a.18.18 0 0 1-.17.17H3.1a.12.12 0 0 1-.1-.12V4.45a.11.11 0 0 0-.19-.08L.59 6.57a.16.16 0 0 0 0 .24L2.79 9A.11.11 0 0 0 3 8.93V7.61a.11.11 0 0 1 .1-.11h2.74A.17.17 0 0 0 6 7.33V5.88z" fill="#0078d4"/></g></svg>
        </g></g><g transform="translate(760 270)"><g transform="scale(2.78)">
            <svg svgBox="0 0 18 18" data-islogo="true" fill="msportalfx-svg-placeholder" role="presentation" focusable="false"><g><title/><defs><linearGradient id="ygc8_14" x1="10.56" y1="7.77" x2="10.56" y2="19.24" gradientUnits="userSpaceOnUse"><stop offset=".22" stop-color="#32d4f5"/><stop offset=".47" stop-color="#31d1f3"/><stop offset=".63" stop-color="#2ec9eb"/><stop offset=".77" stop-color="#29bade"/><stop offset=".89" stop-color="#22a5cb"/><stop offset="1" stop-color="#198ab3"/><stop offset="1" stop-color="#198ab3"/></linearGradient><linearGradient id="ygc8_15" x1="10.23" y1="1.63" x2="11.07" y2="12.04"><stop offset=".22" stop-color="#32d4f5"/><stop offset=".47" stop-color="#31d1f3"/><stop offset=".63" stop-color="#2ec9eb"/><stop offset=".77" stop-color="#29bade"/><stop offset=".89" stop-color="#22a5cb"/><stop offset="1" stop-color="#198ab3"/><stop offset="1" stop-color="#198ab3"/></linearGradient></defs><title>Icon-networking-82</title><path d="M16.23 17.17A1.21 1.21 0 0 0 17.46 16v-.2c-.49-3.86-2.69-7-6.89-7s-6.48 2.66-6.91 7a1.24 1.24 0 0 0 1.1 1.36h11.47z" fill="url(#ygc8_14)"/><path d="M10.57 9.71a3.86 3.86 0 0 1-2.1-.61l2.08 5.42 2.06-5.39a3.83 3.83 0 0 1-2.04.58z" opacity=".8" fill="#fff"/><circle cx="10.57" cy="5.84" r="3.87" fill="url(#ygc8_15)"/><path d="M6 5.88V1a.16.16 0 0 0-.16-.17H4.57a.17.17 0 0 0-.18.17v4.71a.18.18 0 0 1-.17.17H3.1a.12.12 0 0 1-.1-.12V4.45a.11.11 0 0 0-.19-.08L.59 6.57a.16.16 0 0 0 0 .24L2.79 9A.11.11 0 0 0 3 8.93V7.61a.11.11 0 0 1 .1-.11h2.74A.17.17 0 0 0 6 7.33V5.88z" fill="#0078d4"/></g></svg>
        </g></g><g transform="translate(152.43371133972278 46)"><text font-family="Arial" font-size="12px" font-style="normal" font-weight="normal" text-anchor="start" fill="rgb(0,0,0)" fill-opacity="1" dy="1em" transform="translate(0 0)">Test-FW-VN</text></g><g transform="translate(-20.379102818988315 136)"><text font-family="Arial" font-size="12px" font-style="normal" font-weight="normal" text-anchor="start" fill="rgb(0,0,0)" fill-opacity="1" dy="1em" transform="translate(0 0)">AzureFirewallSubnet</text></g><g transform="translate(159.98620646909052 136)"><text font-family="Arial" font-size="12px" font-style="normal" font-weight="normal" text-anchor="start" fill="rgb(0,0,0)" fill-opacity="1" dy="1em" transform="translate(0 0)">Jump-SN</text></g><g transform="translate(151.9765172224619 226)"><text font-family="Arial" font-size="12px" font-style="normal" font-weight="normal" text-anchor="start" fill="rgb(0,0,0)" fill-opacity="1" dy="1em" transform="translate(0 0)">srv-jump121</text></g><g transform="translate(9.320930413845488 316)"><text font-family="Arial" font-size="12px" font-style="normal" font-weight="normal" text-anchor="start" fill="rgb(0,0,0)" fill-opacity="1" dy="1em" transform="translate(0 0)">Srv-Jump</text></g><g transform="translate(147.64489603456684 316)"><text font-family="Arial" font-size="12px" font-style="normal" font-weight="normal" text-anchor="start" fill="rgb(0,0,0)" fill-opacity="1" dy="1em" transform="translate(0 0)">Srv-Jump-nsg</text></g><g transform="translate(297.64782676608775 316)"><text font-family="Arial" font-size="12px" font-style="normal" font-weight="normal" text-anchor="start" fill="rgb(0,0,0)" fill-opacity="1" dy="1em" transform="translate(0 0)">Srv-Jump-PIP</text></g><g transform="translate(599.4209193362342 136)"><text font-family="Arial" font-size="12px" font-style="normal" font-weight="normal" text-anchor="start" fill="rgb(0,0,0)" fill-opacity="1" dy="1em" transform="translate(0 0)">Workload-SN</text></g><g transform="translate(589.8135513473658 226)"><text font-family="Arial" font-size="12px" font-style="normal" font-weight="normal" text-anchor="start" fill="rgb(0,0,0)" fill-opacity="1" dy="1em" transform="translate(0 0)">srv-work267</text></g><g transform="translate(460.1034357299267 316)"><text font-family="Arial" font-size="12px" font-style="normal" font-weight="normal" text-anchor="start" fill="rgb(0,0,0)" fill-opacity="1" dy="1em" transform="translate(0 0)">Srv-Work</text></g><g transform="translate(598.427401350648 316)"><text font-family="Arial" font-size="12px" font-style="normal" font-weight="normal" text-anchor="start" fill="rgb(0,0,0)" fill-opacity="1" dy="1em" transform="translate(0 0)">Srv-Work-nsg</text></g><g transform="translate(748.6442754831949 226)"><text font-family="Arial" font-size="12px" font-style="normal" font-weight="normal" text-anchor="start" fill="rgb(0,0,0)" fill-opacity="1" dy="1em" transform="translate(0 0)">Firewall-route</text></g><g transform="translate(764.7750217742465 316)"><text font-family="Arial" font-size="12px" font-style="normal" font-weight="normal" text-anchor="start" fill="rgb(0,0,0)" fill-opacity="1" dy="1em" transform="translate(0 0)">FW-DG</text></g></g></svg>